<svg fill="none" xmlns="http://www.w3.org/2000/svg" width="36" height="36" viewBox="0 0 36 36"><path d="M17.98 0a17.98 17.98 0 00-16.8 11.59 18.04 18.04 0 004.8 19.85l.27.23.14.1c.32.28.65.54 1 .8l.27.2c.36.25.75.49 1.12.74l.19.12a17.54 17.54 0 004.22 1.77h.05c.48.13.97.25 1.5.34h.14c.48.08.96.15 1.45.2h.17c.5.04 1 .06 1.5.06s1 0 1.5-.07h.16c.5-.04.98-.11 1.46-.2h.13c.5-.08 1-.2 1.5-.33h.06a17.88 17.88 0 004.22-1.77l.19-.12c.38-.22.75-.47 1.11-.75l.28-.2c.35-.25.68-.51 1-.79l.14-.1.26-.23A18.03 18.03 0 0017.98 0zm0 18.02a6 6 0 01-4.24-10.25 6 6 0 114.24 10.25zm2.25 1.5a8.24 8.24 0 018.25 8.26v3l-.1.08c-.29.24-.6.48-.9.7l-.21.14c-.33.23-.68.44-1.03.64l-.2.12c-.36.2-.74.4-1.11.57l-.12.01c-1.25.57-2.57.97-3.92 1.22h-.12c-.42.07-.86.13-1.29.17h-.18c-.44 0-.87.06-1.32.06-.44 0-.87 0-1.32-.06h-.18c-.42 0-.86-.09-1.28-.16h-.13a16.18 16.18 0 01-3.9-1.23h-.13c-.38-.18-.75-.37-1.12-.58l-.19-.17c-.35-.2-.7-.41-1.02-.65l-.22-.1c-.3-.23-.62-.45-.9-.7l-.1-.05v-3a8.27 8.27 0 018.24-8.27h4.5zm9.75 9.83v-1.57a9.77 9.77 0 00-7.78-9.56 7.5 7.5 0 10-8.43 0 9.75 9.75 0 00-7.79 9.56v1.57a16.53 16.53 0 0112-27.86 16.49 16.49 0 0116.25 19.39 16.53 16.53 0 01-4.25 8.47z" fill="#163152"/></svg>
