<svg fill="none" xmlns="http://www.w3.org/2000/svg" width="40" height="22" viewBox="0 0 40 22"><path d="M39.48 20.59h-3.26A19.4 19.4 0 0032 9.12a16.6 16.6 0 00-9.9-6V2.3c0-.61-.23-1.2-.62-1.63-.4-.43-.93-.67-1.5-.67-.55 0-1.09.24-1.48.67-.4.44-.62 1.02-.62 1.63v.63c-4.1.39-7.93 2.4-10.77 5.65A19.28 19.28 0 002.5 20.59H.55a.55.55 0 00-.23.07.6.6 0 00-.18.16.66.66 0 00-.14.48.7.7 0 00.14.47c.1.13.25.21.4.23h38.91c.08 0 .15-.03.23-.07a.6.6 0 00.18-.16.66.66 0 00.13-.47.67.67 0 00-.11-.48.58.58 0 00-.18-.16.53.53 0 00-.22-.07zm-35.74 0c.17-4.4 1.89-8.55 4.8-11.59a14.96 14.96 0 0110.81-4.74c4.03 0 7.9 1.7 10.82 4.74 2.9 3.04 4.62 7.2 4.8 11.59H3.73zM20 1.37a.84.84 0 01.6.27c.08.09.14.2.19.3a1 1 0 01.06.36v.63c-.51-.04-.99-.07-1.5-.07h-.17V2.3c0-.24.09-.47.24-.64a.83.83 0 01.58-.29z" fill="#163152"/><path d="M27.62 8.24a.6.6 0 00-.49.1.67.67 0 00-.18.18.74.74 0 00-.1.53c.01.09.04.18.09.25a.62.62 0 00.4.3c.1.05 2.21.57 3.27 3.94.04.14.12.26.23.35.11.09.25.13.38.13a.4.4 0 00.2-.03c.17-.06.3-.19.38-.36a.76.76 0 00.03-.53c-1.29-4.2-4.08-4.86-4.21-4.86z" fill="#163152"/></svg>
