<svg fill="none" xmlns="http://www.w3.org/2000/svg" width="37" height="23" viewBox="0 0 37 23"><path d="M34.02 12.9a.8.8 0 00.08-.37v-1.19c0-.4-.16-.77-.44-1.05a1.52 1.52 0 00-1.06-.43h-1V3.2a2.2 2.2 0 00-.65-1.55A2.25 2.25 0 0029.37 1H7.7c-.6 0-1.16.23-1.58.65a2.2 2.2 0 00-.65 1.55v6.66H4.4a1.48 1.48 0 00-1.5 1.48v1.2c0 .12.03.24.08.35-.57.16-1.07.49-1.43.95a2.62 2.62 0 00-.55 1.6V19c0 .31.13.61.35.83.23.22.53.35.85.35h2.49v1.1c0 .2.07.38.2.51.14.13.33.21.52.21h.65c.19 0 .37-.08.5-.2a.7.7 0 00.22-.51v-1.11h24.27v1.1c0 .2.08.38.21.51.14.13.32.21.51.21h.65c.2 0 .38-.08.51-.2a.7.7 0 00.21-.51v-1.11h1.66c.32 0 .62-.13.85-.35.22-.22.35-.52.35-.83v-3.55a2.63 2.63 0 00-1.98-2.56zm-28-9.7c0-.44.17-.86.49-1.17.3-.3.73-.48 1.18-.48h21.68c.45 0 .87.17 1.19.48.31.31.49.73.49 1.17v6.59h-3.3v-.72a.8.8 0 00-.23-.57.81.81 0 00-.57-.23h-5.8a.81.81 0 00-.56.23.8.8 0 00-.24.57v.72h-3.64v-.72a.8.8 0 00-.24-.57.81.81 0 00-.57-.23h-5.79a.81.81 0 00-.57.23.8.8 0 00-.24.57v.72H6.02V3.2zM27.2 9.07v.72h-6.3v-.72c0-.07.03-.13.08-.18a.25.25 0 01.18-.07h5.8a.25.25 0 01.25.25zm-11.05 0v.72h-6.3v-.72c0-.07.03-.13.08-.18a.25.25 0 01.18-.07h5.8a.25.25 0 01.25.25zm-12.7 2.28c0-.25.1-.49.28-.66a.96.96 0 01.67-.28h28.2c.25 0 .5.1.67.28.18.17.28.41.28.66v1.19a.27.27 0 01-.27.27H3.73a.27.27 0 01-.2-.08.26.26 0 01-.07-.19v-1.2zm2.78 9.94a.16.16 0 01-.05.12.17.17 0 01-.12.05h-.65a.17.17 0 01-.12-.05.16.16 0 01-.05-.12v-1.06h.99v1.06zm26.36 0a.16.16 0 01-.1.16.17.17 0 01-.07 0h-.64a.17.17 0 01-.12-.04.16.16 0 01-.05-.12v-1.06h.98v1.06zM35.45 19c0 .17-.07.33-.2.45a.65.65 0 01-.45.19H2.2a.65.65 0 01-.46-.19.63.63 0 01-.18-.45v-3.55c0-.56.22-1.1.62-1.49.4-.39.94-.61 1.5-.61h29.64c.56 0 1.1.22 1.5.61.4.4.62.93.62 1.49V19z" fill="#163152"/><path d="M16.15 9.07v.72h-6.3v-.72c0-.07.03-.13.08-.18a.25.25 0 01.18-.07h5.8a.25.25 0 01.25.25zM27.2 9.07v.72h-6.3v-.72c0-.07.03-.13.08-.18a.25.25 0 01.18-.07h5.8a.25.25 0 01.25.25zM32.6 21.3a.16.16 0 01-.11.15.17.17 0 01-.07 0h-.64a.17.17 0 01-.12-.04.16.16 0 01-.05-.12v-1.06h.98v1.06zM6.23 21.3a.16.16 0 01-.05.11.17.17 0 01-.12.05h-.65a.17.17 0 01-.12-.05.16.16 0 01-.05-.12v-1.06h.99v1.06z" fill="#163152"/><path d="M34.02 12.9a.8.8 0 00.08-.37v-1.19c0-.4-.16-.77-.44-1.05a1.52 1.52 0 00-1.06-.43h-1V3.2a2.2 2.2 0 00-.65-1.55A2.25 2.25 0 0029.37 1H7.7c-.6 0-1.16.23-1.58.65a2.2 2.2 0 00-.65 1.55v6.66H4.4a1.48 1.48 0 00-1.5 1.48v1.2c0 .12.03.24.08.35-.57.16-1.07.49-1.43.95a2.62 2.62 0 00-.55 1.6V19c0 .31.13.61.35.83.23.22.53.35.85.35h2.49v1.1c0 .2.07.38.2.51.14.13.33.21.52.21h.65c.19 0 .37-.08.5-.2a.7.7 0 00.22-.51v-1.11h24.27v1.1c0 .2.08.38.21.51.14.13.32.21.51.21h.65c.2 0 .38-.08.51-.2a.7.7 0 00.21-.51v-1.11h1.66c.32 0 .62-.13.85-.35.22-.22.35-.52.35-.83v-3.55a2.63 2.63 0 00-1.98-2.56zm-28-9.7c0-.44.17-.86.49-1.17.3-.3.73-.48 1.18-.48h21.68c.45 0 .87.17 1.19.48.31.31.49.73.49 1.17v6.59h-3.3v-.72a.8.8 0 00-.23-.57.81.81 0 00-.57-.23h-5.8a.81.81 0 00-.56.23.8.8 0 00-.24.57v.72h-3.64v-.72a.8.8 0 00-.24-.57.81.81 0 00-.57-.23h-5.79a.81.81 0 00-.57.23.8.8 0 00-.24.57v.72H6.02V3.2zM27.2 9.07v.72h-6.3v-.72c0-.07.03-.13.08-.18a.25.25 0 01.18-.07h5.8a.25.25 0 01.25.25zm-11.05 0v.72h-6.3v-.72c0-.07.03-.13.08-.18a.25.25 0 01.18-.07h5.8a.25.25 0 01.25.25zm-12.7 2.28c0-.25.1-.49.28-.66a.96.96 0 01.67-.28h28.2c.25 0 .5.1.67.28.18.17.28.41.28.66v1.19a.27.27 0 01-.27.27H3.73a.27.27 0 01-.2-.08.26.26 0 01-.07-.19v-1.2zm2.78 9.94a.16.16 0 01-.05.12.17.17 0 01-.12.05h-.65a.17.17 0 01-.12-.05.16.16 0 01-.05-.12v-1.06h.99v1.06zm26.36 0a.16.16 0 01-.1.16.17.17 0 01-.07 0h-.64a.17.17 0 01-.12-.04.16.16 0 01-.05-.12v-1.06h.98v1.06zM35.45 19c0 .17-.07.33-.2.45a.65.65 0 01-.45.19H2.2a.65.65 0 01-.46-.19.63.63 0 01-.18-.45v-3.55c0-.56.22-1.1.62-1.49.4-.39.94-.61 1.5-.61h29.64c.56 0 1.1.22 1.5.61.4.4.62.93.62 1.49V19h0z" stroke="#163152"/><path d="M16.15 9.07v.72h-6.3v-.72c0-.07.03-.13.08-.18a.25.25 0 01.18-.07h5.8a.25.25 0 01.25.25zM27.2 9.07v.72h-6.3v-.72c0-.07.03-.13.08-.18a.25.25 0 01.18-.07h5.8a.25.25 0 01.25.25zM32.6 21.3a.16.16 0 01-.11.15.17.17 0 01-.07 0h-.64a.17.17 0 01-.12-.04.16.16 0 01-.05-.12v-1.06h.98v1.06zM6.23 21.3a.16.16 0 01-.05.11.17.17 0 01-.12.05h-.65a.17.17 0 01-.12-.05.16.16 0 01-.05-.12v-1.06h.99v1.06z" stroke="#163152"/></svg>
