<svg fill="none" xmlns="http://www.w3.org/2000/svg" width="29" height="29" viewBox="0 0 29 29"><path d="M5.65 1.6l2.09 3.13H3.48l9.73 11.93v11.85c-2.6.02-4.61.21-4.61.45a.05.05 0 00.01.04h10.13a.05.05 0 00.02-.04c0-.23-2.03-.43-4.61-.45V16.67l9.72-11.93H8.77L6.36 1.11A2.33 2.33 0 004.46.07H0v.89h4.45a1.42 1.42 0 011.2.64zM21.9 5.68L20.26 7.7h-9.52L9.4 5.68H21.9zm-13.55 0L9.71 7.7H8.17l6.05 7.42-.54.66-8.23-10.1h2.91z" fill="#163152"/><path d="M24.77 7.84c.65 0 1.3-.2 1.85-.57a3.58 3.58 0 00.6-5.3 3.35 3.35 0 00-3.6-.88c-.63.23-1.17.64-1.56 1.19-.4.54-.63 1.2-.66 1.87h-.86c.04-.85.32-1.67.8-2.36a4.11 4.11 0 016.48-.44 4.41 4.41 0 01.84 4.73 4.33 4.33 0 01-1.56 1.93 4.14 4.14 0 01-4.96-.23l.55-.67c.6.47 1.33.73 2.08.73z" fill="#163152"/></svg>
