<svg fill="none" xmlns="http://www.w3.org/2000/svg" width="34" height="29" viewBox="0 0 34 29"><path d="M33.87 14.3a.5.5 0 00-.71-.03l-2.02 1.9L21.87 7 28.48.86a.5.5 0 00-.68-.73l-7 6.51a.5.5 0 000 .72l.82.8-.26.24-5.49-.47a.5.5 0 00-.24.04l-4.35 1.98a.5.5 0 00-.04 0l-2.5-.45.2-.52a.5.5 0 00-.27-.64L.68 5.14a.5.5 0 10-.37.93l7.53 3.01L3.4 20.42l-2.73-.97a.5.5 0 10-.34.94l3.2 1.13a.5.5 0 00.63-.29l.74-1.9 1.94 1.1-.21.34a2.1 2.1 0 002.43 3.1 2.1 2.1 0 002.71 1.68 2.1 2.1 0 002.72 1.67c.1.6.45 1.15.97 1.47a2.12 2.12 0 002.89-.68l.34-.55.28.17a2.11 2.11 0 002.88-.69c.24-.38.33-.8.3-1.22a2.11 2.11 0 002.58-2.16 2.11 2.11 0 002.58-2.17 2.09 2.09 0 002.28-.94c.6-.99.3-2.28-.69-2.89l-.34-.2 1.14-1.2 1.08 1.05c.19.19.5.2.69.01L33.84 15a.5.5 0 00.03-.7zM9.34 22.45a1.1 1.1 0 01-1.86-1.15l2.8-4.53c.3-.51.97-.68 1.48-.37.53.3.68 1.03.36 1.55l-2.78 4.5zm2.72 1.68a1.1 1.1 0 01-1.87-1.15l2.24-3.63c.31-.5.98-.67 1.5-.37.52.31.67 1.04.35 1.55l-2.22 3.6zm2.72 1.68a1.1 1.1 0 01-1.51.35c-.51-.31-.67-1-.36-1.5l1.68-2.73c.31-.5.98-.67 1.5-.37.52.32.67 1.04.35 1.56l-1.66 2.69zm3.82-.1l-1.1 1.77c-.32.51-1 .68-1.51.36-.51-.31-.68-1-.36-1.5l1.12-1.82c.3-.5.98-.67 1.49-.37.53.31.67 1.04.36 1.55zm9.09-8.9L25.2 15.3a.5.5 0 00-.68.16.5.5 0 00.16.69l3.69 2.26a1.1 1.1 0 01-1.15 1.87l-3.95-2.43a.5.5 0 10-.53.85l3.05 1.88c.5.31.67 1 .36 1.5-.31.52-1 .68-1.51.37l-2.76-1.7a.5.5 0 10-.52.85l1.85 1.14c.5.31.67 1 .36 1.51-.31.51-1 .68-1.51.36l-1.64-1a.5.5 0 00-.48.87l.69.43c.52.31.68 1 .36 1.5-.31.52-1 .68-1.5.37l-.29-.17.24-.38c.3-.5.39-1.09.25-1.65a2.06 2.06 0 00-2.15-1.57c.07-.33.08-.68 0-1.01a2.06 2.06 0 00-2.16-1.58c.2-.88-.17-1.83-.96-2.3-.37-.22-.8-.31-1.2-.28.2-.89-.17-1.84-.96-2.3a2.1 2.1 0 00-2.85.7l-2.05 3.33-2.1-1.17 3.1-7.95 1.7.3a2.1 2.1 0 002.5 3.22l2.92-1.33a.5.5 0 00.25-.66.5.5 0 00-.66-.25l-2.93 1.33a1.1 1.1 0 01-.9-2l4.67-2.13 5.56.48a.49.49 0 00.38-.12l.47-.42 6.66 6.58-1.3 1.37z" fill="#163152"/><path d="M23.33 14.14l-4.63-2.85a.51.51 0 00-.18-.06l-1.45-.26a.5.5 0 00-.58.4.5.5 0 00.4.58l1.37.24 4.55 2.8a.5.5 0 00.67-.15.5.5 0 00-.15-.7z" fill="#163152"/></svg>
